<?xml version="1.0" encoding="utf-8"?>
<!-- Generator: Adobe Illustrator 23.0.3, SVG Export Plug-In . SVG Version: 6.00 Build 0)  -->
<svg version="1.1" id="レイヤー_1" xmlns="http://www.w3.org/2000/svg" xmlns:xlink="http://www.w3.org/1999/xlink" x="0px"
	 y="0px" viewBox="0 0 32.9 72" style="enable-background:new 0 0 32.9 72;" xml:space="preserve">
<style type="text/css">
	.st0{fill-rule:evenodd;clip-rule:evenodd;fill:#FFFFFF;}
</style>
<path class="st0" d="M32.8,24.3l-2.3,9.1c-0.4,1.5-1.8,2.6-3.3,2.6h-6v33c0,1.7-1.4,3-3,3H9c-1.7,0-3-1.3-3-3V36H3c-1.7,0-3-1.3-3-3
	v-9c0-1.7,1.4-3,3-3h3v-7.5C6,7,10.8,0,19.6,0h9C29.5,0,30,0.7,30,1.5v12c0,0.8-0.5,1.5-1.4,1.5h-7.5v6h9.1c0.9,0,1.6,0.4,2.1,1
	C32.8,22.6,33,23.5,32.8,24.3z M19.7,24C19.7,24,19.6,24,19.7,24c-0.9,0-1.6-0.7-1.6-1.5v-7.7c0-0.1,0-0.3,0.1-0.4
	c0.2-1.3,1.3-2.4,3-2.4H27V3h-7.4C12.7,3,9,8.3,9,13.5v9C9,23.3,8.4,24,7.5,24H3v9h4.5C8.4,33,9,33.7,9,34.5V69h9.1V34.5
	c0-0.8,0.7-1.5,1.5-1.5h7.5c0.1,0,0.4-0.2,0.4-0.3l2.2-8.7H19.7z"/>
</svg>
