<?xml version="1.0" encoding="utf-8"?>
<!-- Generator: Adobe Illustrator 23.0.3, SVG Export Plug-In . SVG Version: 6.00 Build 0)  -->
<svg version="1.1" id="レイヤー_1" xmlns="http://www.w3.org/2000/svg" xmlns:xlink="http://www.w3.org/1999/xlink" x="0px"
	 y="0px" viewBox="0 0 71.7 57" style="enable-background:new 0 0 71.7 57;" xml:space="preserve">
<style type="text/css">
	.st0{fill-rule:evenodd;clip-rule:evenodd;fill:#FFFFFF;}
</style>
<path class="st0" d="M47.8,3c3.9,0,8.1,1.5,10.5,4c3.1-0.6,6-1.6,8.6-3.1c-1,3-3.1,5.5-5.9,7.1c2.7-0.3,5.3-1,7.7-2
	c-1.8,2.6-4.1,4.9-6.7,6.7c0,0.6,0,1.1,0,1.7C62,34.4,48.7,54,23.9,54c-8.2,0-15-2.2-20.9-5.8c1.1,0.1,2.1,0.2,3.2,0.2
	c6.3,0,12.1-2.1,16.8-5.5C17,42.8,12,39,10.3,33.9c0.8,0.2,1.7,0.2,2.5,0.2c1.2,0,2.4-0.2,3.5-0.5C10.2,32.5,5.8,27.3,5.8,21
	c0-0.1,0-0.1,0-0.2c1.8,1,3.9,1.5,6.1,1.6c-3.6-2.3-6-6.3-6-10.7c0-2.4,0.7-4.6,1.8-6.5c6.6,7.8,16.4,12.9,27.6,13.5
	c-0.2-0.9-0.4-1.9-0.4-2.9C35,8.7,40.3,3,47.8,3 M68.7,9L68.7,9 M47.8,0C39.1,0,32.2,6.8,32,15.5C23.4,14.2,15.7,10,10,3.3
	c-0.6-0.7-1.4-1-2.3-1c-0.1,0-0.2,0-0.2,0c-1,0.1-1.8,0.6-2.3,1.4c-1.5,2.4-2.3,5.2-2.3,8c0,2.3,0.5,4.5,1.4,6.5c0,0-0.1,0-0.1,0.1
	c-0.9,0.5-1.4,1.5-1.4,2.6V21c0,4.4,1.9,8.5,4.9,11.4c-0.4,0.7-0.5,1.6-0.2,2.4c1.3,3.9,4,7,7.5,8.9c-2.8,1-5.8,1.6-8.9,1.6
	c-1,0-1.9-0.1-2.9-0.2c-0.1,0-0.2,0-0.4,0c-1.3,0-2.4,0.8-2.8,2c-0.5,1.3,0.1,2.8,1.3,3.5C8.2,55,15.6,57,23.9,57
	C49.6,57,65,36.8,65,17.3c0-0.1,0-0.1,0-0.2c2.3-1.8,4.4-3.9,6.1-6.3c0.4-0.5,0.6-1.1,0.6-1.8c0-1.5-1-2.7-2.4-2.9
	c0.2-0.4,0.3-0.8,0.5-1.2c0.4-1.2,0-2.5-0.9-3.3c-0.5-0.5-1.2-0.7-1.9-0.7c-0.5,0-1,0.1-1.5,0.4c-1.9,1.1-4,1.9-6.2,2.5
	C56.2,1.4,52,0,47.8,0L47.8,0z"/>
</svg>
